<?xml version="1.0" encoding="UTF-8" standalone="no"?>
<!-- Created with Inkscape (http://www.inkscape.org/) -->

<svg
   width="512"
   height="512"
   viewBox="0 0 135.46666 135.46667"
   version="1.1"
   id="svg5"
   sodipodi:docname="drawing.svg"
   inkscape:version="1.1.2 (b8e25be833, 2022-02-05)"
   xmlns:inkscape="http://www.inkscape.org/namespaces/inkscape"
   xmlns:sodipodi="http://sodipodi.sourceforge.net/DTD/sodipodi-0.dtd"
   xmlns="http://www.w3.org/2000/svg"
   xmlns:svg="http://www.w3.org/2000/svg">
  <sodipodi:namedview
     id="namedview7"
     pagecolor="#ffffff"
     bordercolor="#999999"
     borderopacity="1"
     inkscape:pageshadow="0"
     inkscape:pageopacity="0"
     inkscape:pagecheckerboard="0"
     inkscape:document-units="px"
     showgrid="false"
     units="px"
     inkscape:zoom="1.2810466"
     inkscape:cx="415.67575"
     inkscape:cy="248.23453"
     inkscape:window-width="1920"
     inkscape:window-height="1017"
     inkscape:window-x="-8"
     inkscape:window-y="-8"
     inkscape:window-maximized="1"
     inkscape:current-layer="layer1" />
  <defs
     id="defs2" />
  <g
     inkscape:label="Layer 1"
     inkscape:groupmode="layer"
     id="layer1">
    <rect
       style="fill:none;stroke-width:0.264583"
       id="rect123"
       width="35.111263"
       height="8.4680109"
       x="27.469404"
       y="58.036854" />
    <text
       xml:space="preserve"
       style="font-size:7.76111101px;line-height:1.25;font-family:sans-serif;stroke-width:0.264583"
       x="38.002781"
       y="62.37413"
       id="text1349"><tspan
         sodipodi:role="line"
         id="tspan1347"
         style="stroke-width:0.264583;font-size:11.28888875px;-inkscape-font-specification:Minecraft;font-family:Minecraft;font-weight:normal;font-style:normal;font-stretch:normal;font-variant:normal"
         x="38.002781"
         y="62.37413" /></text>
    <text
       xml:space="preserve"
       style="font-size:66.1458px;line-height:1.25;font-family:sans-serif;stroke-width:0.264583"
       x="12.39221"
       y="105.54034"
       id="text14663"><tspan
         sodipodi:role="line"
         id="tspan14661"
         style="font-style:normal;font-variant:normal;font-weight:normal;font-stretch:normal;font-size:66.1458px;font-family:Minecraft;-inkscape-font-specification:Minecraft;stroke-width:0.264583"
         x="12.39221"
         y="105.54034">exe</tspan></text>
    <path
       style="fill:none;stroke-width:0.264583"
       id="path23682"
       d="m 19.290916,44.555288 c 1.190984,-1.873351 2.94593,-3.32472 4.588113,-4.787969 2.425072,-2.118373 4.917866,-4.162375 7.217034,-6.420493 0.44975,-0.441719 0.884148,-0.8988 1.326222,-1.3482 2.351526,-2.380864 4.339026,-5.075185 6.374571,-7.72046 0.968595,-1.223179 1.860442,-2.508017 2.867896,-3.70062 0.462904,-0.547977 0.806429,-0.899975 1.297326,-1.422696 1.394547,-1.408745 2.988913,-2.582845 4.621705,-3.696036 -0.623375,0.301308 2.119328,-1.297418 1.589648,-0.972814 -0.601543,0.368644 -1.228863,0.695668 -1.81791,1.083968 -0.214913,0.141671 0.460563,-0.230071 0.692359,-0.342005 0.683625,-0.330121 0.548733,-0.263156 1.228286,-0.543639 1.294448,-0.522376 2.670858,-0.770263 4.031406,-1.051071 1.565566,-0.34305 3.15118,-0.547128 4.747723,-0.668021 1.898489,-0.105507 3.801652,-0.128491 5.702498,-0.09616 2.784184,0.09797 5.558528,0.353908 8.334174,0.580088 3.275206,0.184147 6.541543,0.417844 9.792211,0.865276 2.590649,0.357788 5.160901,0.842876 7.725957,1.348522 1.465678,0.319031 2.951062,0.552199 4.407834,0.910787 0.862193,0.229714 1.713624,0.499431 2.565157,0.76602 0.529688,0.166672 1.093605,0.221707 1.563261,0.534072 0.406141,0.427105 0.254217,0.979491 0.119801,1.486868 -0.233968,0.707285 -0.667927,1.20956 -1.238581,1.671355 -0.151614,0.109144 -0.617709,0.418935 -0.45484,0.327431 0.655169,-0.368096 1.325462,-0.717637 1.934054,-1.158499 0.243277,-0.17623 -0.545854,0.252475 -0.827513,0.356921 -1.209368,0.448464 -2.460549,0.641428 -3.727823,0.844273 -2.299814,0.321336 -4.610727,0.552739 -6.912457,0.858875 -1.974895,0.317854 -3.952859,0.616642 -5.928616,0.929379 -2.475603,0.342672 -4.923214,0.847035 -7.371213,1.343336 -2.406028,0.450433 -4.772371,1.075986 -7.096442,1.840175 -2.239843,0.75458 -4.406426,1.700828 -6.573435,2.63899 -2.905406,1.214766 -5.610085,2.812542 -8.328578,4.387773 -1.032534,0.631285 -2.087256,1.310391 -2.719996,2.369227 -0.347599,0.717191 -0.227854,1.149324 0.189915,1.802707 0.523851,0.750351 1.273016,1.28107 2.033805,1.767703 1.407252,0.869751 3.054119,1.133557 4.649152,1.457716 2.834203,0.505151 5.718257,0.631632 8.590552,0.713793 2.554082,0.100439 5.10453,0.05071 7.652142,-0.145521 1.976308,-0.165129 3.931269,-0.497207 5.879483,-0.858205 1.747018,-0.344093 3.488579,-0.713957 5.235874,-1.056949 1.863032,-0.402252 3.7587,-0.623163 5.649571,-0.847199 1.844371,-0.211492 3.70009,-0.2843 5.554941,-0.319706 1.203105,-0.01887 2.406451,-0.01416 3.609641,-0.007 0.136972,0.0011 0.273945,0.0021 0.410919,0.0032 0,0 2.480727,-1.801514 2.480727,-1.801514 v 0 c -0.13916,5.3e-4 -0.27832,7.94e-4 -0.41748,0.0013 -1.216588,0.0031 -2.433208,0.0057 -3.649654,0.02748 -1.868543,0.04389 -3.738023,0.112236 -5.597244,0.315457 -1.888874,0.218115 -3.786167,0.417655 -5.647137,0.817264 -1.749838,0.335319 -3.490603,0.712636 -5.237822,1.060735 -1.951392,0.370555 -3.908819,0.719196 -5.888259,0.903034 -2.549456,0.2257 -5.1029,0.279921 -7.661434,0.192529 -2.856071,-0.07608 -5.725387,-0.172389 -8.543163,-0.68449 -1.542997,-0.318998 -3.125568,-0.614254 -4.498901,-1.427964 -0.727667,-0.452253 -1.45157,-0.947939 -1.954371,-1.655649 -0.370631,-0.603104 -0.372234,-0.880404 -0.02582,-1.495049 0.682918,-0.967756 1.701141,-1.605304 2.700261,-2.209335 -0.586846,0.334095 -1.178542,0.659816 -1.760543,1.002282 -0.295315,0.173773 0.598276,-0.334283 0.900308,-0.496094 1.328579,-0.711777 2.690315,-1.358741 4.064921,-1.976207 2.168919,-0.93916 4.330279,-1.902444 6.568754,-2.66813 2.315954,-0.780714 4.677887,-1.413978 7.079766,-1.872553 2.443245,-0.494928 4.884201,-1.007192 7.355224,-1.34817 1.963621,-0.299823 3.9307,-0.576354 5.8895,-0.906322 2.319134,-0.333249 4.647253,-0.597323 6.970863,-0.896795 0.840254,-0.125027 1.849882,-0.257436 2.680989,-0.450274 2.040387,-0.473421 3.929756,-1.553306 5.569281,-2.830082 0.550051,-0.521784 1.006001,-1.101929 1.188111,-1.854471 0.14076,-0.639715 0.17556,-1.28224 -0.29129,-1.805205 -0.50725,-0.403501 -1.017239,-0.467809 -1.628373,-0.616292 -0.866018,-0.256096 -1.72911,-0.522492 -2.600992,-0.757829 -1.470274,-0.392695 -2.992506,-0.557925 -4.47843,-0.883095 -2.58445,-0.501706 -5.176295,-0.967965 -7.784822,-1.327999 -1.245383,-0.16761 -1.964283,-0.274398 -3.225263,-0.402141 -1.647894,-0.166938 -3.299878,-0.252439 -4.952198,-0.35665 -0.54356,-0.03428 -1.086599,-0.07634 -1.6299,-0.114506 -2.760548,-0.231909 -5.51738,-0.517721 -8.286239,-0.63688 -1.894726,-0.04649 -3.791783,-0.04007 -5.685308,0.04927 -1.603547,0.109481 -3.199276,0.294031 -4.771504,0.637224 -1.362485,0.273873 -2.74411,0.499575 -4.048487,0.995899 -2.432479,0.939642 -4.66756,2.333642 -6.853987,3.740556 -1.631137,1.1303 -3.224839,2.322555 -4.603448,3.759232 -1.48432,1.608829 -2.786568,3.35972 -4.084849,5.120321 -2.006121,2.64232 -4.009953,5.298303 -6.342409,7.667377 -0.440301,0.445177 -0.87299,0.898012 -1.320901,1.335529 -2.31254,2.258883 -4.819326,4.302668 -7.253564,6.425907 -1.698394,1.512461 -3.517466,3.01077 -4.721187,4.968554 0,0 2.81044,-1.271532 2.81044,-1.271532 z" />
    <ellipse
       style="fill:#000000;stroke-width:0.264583"
       id="path24978"
       cx="68.6735"
       cy="39.035465"
       rx="21.789639"
       ry="21.273296" />
    <ellipse
       style="fill:none;stroke-width:0.264583"
       id="path25124"
       cx="23.235397"
       cy="34.388386"
       rx="11.462795"
       ry="15.180458" />
    <ellipse
       style="fill:#000000;stroke-width:0.184823"
       id="path25128"
       cx="68.880043"
       cy="38.983826"
       rx="10.533379"
       ry="11.204626" />
    <text
       xml:space="preserve"
       style="font-size:9.525px;line-height:1.25;font-family:sans-serif;fill:#ffffff;stroke-width:0.264583"
       x="59.482613"
       y="43.062935"
       id="text31504"><tspan
         sodipodi:role="line"
         id="tspan31502"
         style="font-style:normal;font-variant:normal;font-weight:normal;font-stretch:normal;font-size:9.525px;font-family:Minecraft;-inkscape-font-specification:Minecraft;fill:#ffffff;stroke-width:0.264583"
         x="59.482613"
         y="43.062935">Run</tspan></text>
  </g>
</svg>
