<?xml version="1.0" encoding="UTF-8" standalone="no"?>
<!-- Created with Inkscape (http://www.inkscape.org/) -->

<svg
   width="512"
   height="512"
   viewBox="0 0 135.46666 135.46667"
   version="1.1"
   id="svg5"
   inkscape:version="1.1.2 (b8e25be833, 2022-02-05)"
   sodipodi:docname="unknown.svg"
   inkscape:export-filename="D:\Simple-file-server\images\unknown.png"
   inkscape:export-xdpi="96"
   inkscape:export-ydpi="96"
   xmlns:inkscape="http://www.inkscape.org/namespaces/inkscape"
   xmlns:sodipodi="http://sodipodi.sourceforge.net/DTD/sodipodi-0.dtd"
   xmlns="http://www.w3.org/2000/svg"
   xmlns:svg="http://www.w3.org/2000/svg">
  <sodipodi:namedview
     id="namedview7"
     pagecolor="#ffffff"
     bordercolor="#999999"
     borderopacity="1"
     inkscape:pageshadow="0"
     inkscape:pageopacity="0"
     inkscape:pagecheckerboard="0"
     inkscape:document-units="mm"
     showgrid="false"
     units="px"
     inkscape:zoom="1"
     inkscape:cx="142.5"
     inkscape:cy="187.99999"
     inkscape:window-width="1920"
     inkscape:window-height="1017"
     inkscape:window-x="-8"
     inkscape:window-y="-8"
     inkscape:window-maximized="1"
     inkscape:current-layer="layer1" />
  <defs
     id="defs2">
    <inkscape:path-effect
       effect="powerstroke"
       id="path-effect422"
       is_visible="true"
       lpeversion="1"
       offset_points="0,4.99214"
       not_jump="false"
       sort_points="true"
       interpolator_type="CubicBezierJohan"
       interpolator_beta="0.2"
       start_linecap_type="zerowidth"
       linejoin_type="extrp_arc"
       miter_limit="4"
       scale_width="1"
       end_linecap_type="zerowidth" />
    <inkscape:path-effect
       effect="powerstroke"
       id="path-effect418"
       is_visible="true"
       lpeversion="1"
       offset_points="0,4.99214"
       not_jump="false"
       sort_points="true"
       interpolator_type="CubicBezierJohan"
       interpolator_beta="0.2"
       start_linecap_type="zerowidth"
       linejoin_type="extrp_arc"
       miter_limit="4"
       scale_width="1"
       end_linecap_type="zerowidth" />
    <inkscape:path-effect
       effect="powerstroke"
       id="path-effect414"
       is_visible="true"
       lpeversion="1"
       offset_points="0,4.99214"
       not_jump="false"
       sort_points="true"
       interpolator_type="CubicBezierJohan"
       interpolator_beta="0.2"
       start_linecap_type="zerowidth"
       linejoin_type="extrp_arc"
       miter_limit="4"
       scale_width="1"
       end_linecap_type="zerowidth" />
    <inkscape:path-effect
       effect="powerstroke"
       id="path-effect410"
       is_visible="true"
       lpeversion="1"
       offset_points="0,4.99214"
       not_jump="false"
       sort_points="true"
       interpolator_type="CubicBezierJohan"
       interpolator_beta="0.2"
       start_linecap_type="zerowidth"
       linejoin_type="extrp_arc"
       miter_limit="4"
       scale_width="1"
       end_linecap_type="zerowidth" />
    <inkscape:path-effect
       effect="powerstroke"
       id="path-effect406"
       is_visible="true"
       lpeversion="1"
       offset_points="0,4.99214"
       not_jump="false"
       sort_points="true"
       interpolator_type="CubicBezierJohan"
       interpolator_beta="0.2"
       start_linecap_type="zerowidth"
       linejoin_type="extrp_arc"
       miter_limit="4"
       scale_width="1"
       end_linecap_type="zerowidth" />
    <inkscape:path-effect
       effect="powerstroke"
       id="path-effect402"
       is_visible="true"
       lpeversion="1"
       offset_points="0,4.99214"
       not_jump="false"
       sort_points="true"
       interpolator_type="CubicBezierJohan"
       interpolator_beta="0.2"
       start_linecap_type="zerowidth"
       linejoin_type="extrp_arc"
       miter_limit="4"
       scale_width="1"
       end_linecap_type="zerowidth" />
    <inkscape:path-effect
       effect="powerstroke"
       id="path-effect251"
       is_visible="true"
       lpeversion="1"
       offset_points="0,4.99214"
       not_jump="false"
       sort_points="true"
       interpolator_type="CubicBezierJohan"
       interpolator_beta="0.2"
       start_linecap_type="zerowidth"
       linejoin_type="extrp_arc"
       miter_limit="4"
       scale_width="1"
       end_linecap_type="zerowidth" />
    <inkscape:path-effect
       effect="powerstroke"
       id="path-effect247"
       is_visible="true"
       lpeversion="1"
       offset_points="0,4.99214"
       not_jump="false"
       sort_points="true"
       interpolator_type="CubicBezierJohan"
       interpolator_beta="0.2"
       start_linecap_type="zerowidth"
       linejoin_type="extrp_arc"
       miter_limit="4"
       scale_width="1"
       end_linecap_type="zerowidth" />
    <inkscape:path-effect
       effect="powerstroke"
       id="path-effect243"
       is_visible="true"
       lpeversion="1"
       offset_points="0,4.99214"
       not_jump="false"
       sort_points="true"
       interpolator_type="CubicBezierJohan"
       interpolator_beta="0.2"
       start_linecap_type="zerowidth"
       linejoin_type="extrp_arc"
       miter_limit="4"
       scale_width="1"
       end_linecap_type="zerowidth" />
    <inkscape:path-effect
       effect="powerstroke"
       id="path-effect239"
       is_visible="true"
       lpeversion="1"
       offset_points="0,4.99214"
       not_jump="false"
       sort_points="true"
       interpolator_type="CubicBezierJohan"
       interpolator_beta="0.2"
       start_linecap_type="zerowidth"
       linejoin_type="extrp_arc"
       miter_limit="4"
       scale_width="1"
       end_linecap_type="zerowidth" />
    <inkscape:path-effect
       effect="powerstroke"
       id="path-effect235"
       is_visible="true"
       lpeversion="1"
       offset_points="0,4.99214"
       not_jump="false"
       sort_points="true"
       interpolator_type="CubicBezierJohan"
       interpolator_beta="0.2"
       start_linecap_type="zerowidth"
       linejoin_type="extrp_arc"
       miter_limit="4"
       scale_width="1"
       end_linecap_type="zerowidth" />
  </defs>
  <g
     inkscape:label="Layer 1"
     inkscape:groupmode="layer"
     id="layer1">
    <path
       style="fill:none;stroke:#000000;stroke-width:1.07182px;stroke-linecap:butt;stroke-linejoin:miter;stroke-opacity:1"
       d="M 14.964624,51.065591 V 130.19833 H 124.05848 l -0.0136,-79.132731"
       id="path915" />
    <text
       xml:space="preserve"
       style="font-size:16.5493px;line-height:1.25;font-family:sans-serif;stroke-width:0.517162"
       x="33.394878"
       y="101.53743"
       id="text4478"><tspan
         sodipodi:role="line"
         style="font-style:normal;font-variant:normal;font-weight:normal;font-stretch:normal;font-family:sans-serif;-inkscape-font-specification:sans-serif;stroke-width:0.517162"
         x="33.394878"
         y="101.53743"
         id="tspan1930">Unknown</tspan><tspan
         sodipodi:role="line"
         style="font-style:normal;font-variant:normal;font-weight:normal;font-stretch:normal;font-family:sans-serif;-inkscape-font-specification:sans-serif;stroke-width:0.517162"
         x="33.394878"
         y="122.22405"
         id="tspan14973">  filetype</tspan></text>
    <text
       xml:space="preserve"
       style="font-size:97.8952px;line-height:1.25;font-family:sans-serif;stroke-width:3.05921"
       x="54.816986"
       y="76.257339"
       id="text2199"><tspan
         sodipodi:role="line"
         id="tspan2197"
         style="font-style:normal;font-variant:normal;font-weight:normal;font-stretch:normal;font-family:monospace;-inkscape-font-specification:monospace;stroke-width:3.05921"
         x="54.816986"
         y="76.257339" /></text>
    <path
       style="fill:#000000;stroke:#000000;stroke-width:1.64394;paint-order:fill markers stroke"
       id="path6905"
       d="m 67.219165,24.935114 c -0.04301,-1.109381 -0.03314,-2.220012 -0.02448,-3.329954 0.01576,-1.185391 0.09409,-2.377293 0.339025,-3.539943 0.05678,-0.269515 0.130918,-0.535082 0.196373,-0.802622 0.437002,-1.341929 0.966455,-2.687727 1.788126,-3.847092 0.109386,-0.15434 0.234206,-0.297162 0.351312,-0.445742 0.116884,-0.107577 0.225731,-0.224618 0.350661,-0.322746 0.113815,-0.0894 0.242124,-0.15862 0.363184,-0.237924 -1.686554,0.997319 -3.386377,1.972533 -5.059668,2.991956 -0.147307,0.08975 0.31299,-0.147323 0.477182,-0.20016 0.456657,-0.146975 0.770596,-0.167605 1.24834,-0.233447 1.422597,-0.150559 2.8363,0.03222 4.214154,0.382733 1.483618,0.375671 2.840343,1.06703 4.141513,1.854665 1.044215,0.731897 2.061079,1.568518 2.774745,2.641251 0.443226,0.666233 0.463899,0.85278 0.752674,1.610894 0.43348,1.478736 0.474917,3.020537 0.209654,4.534776 -0.152615,0.87115 -0.365036,1.499952 -0.615131,2.341213 -0.429782,1.222848 -0.956069,2.421037 -1.680979,3.500616 -0.359304,0.535099 -0.48355,0.644111 -0.901677,1.114372 -0.877031,0.9363 -1.904691,1.709586 -2.8963,2.517521 -1.078625,0.824644 -1.989668,1.833088 -2.876075,2.854372 -0.498108,0.649672 -1.065638,1.243857 -1.566473,1.891058 -0.217234,0.280722 -0.446589,0.62201 -0.648131,0.914479 -0.66571,0.87647 -1.126038,1.8829 -1.511808,2.907572 -0.469896,1.478349 -0.61858,3.032467 -0.732068,4.572145 -0.09154,1.36816 -0.132494,2.738641 -0.143359,4.109585 0.0081,1.133989 -0.0026,2.267826 -0.0053,3.401851 0.0244,0.896088 0.01062,1.792586 -0.01734,2.688371 0,0 5.71384,-2.911574 5.71384,-2.911574 v 0 c -0.02923,-0.889544 -0.0427,-1.779791 -0.02125,-2.669722 -0.0065,-1.129162 -0.02528,-2.258057 -0.01792,-3.387207 -0.0048,-1.338438 -0.02594,-2.67876 0.06501,-4.015103 0.132361,-1.515269 0.313387,-3.037839 0.921647,-4.449035 0.433229,-0.982668 0.936118,-1.922609 1.586191,-2.781999 0.684582,-0.943282 1.440523,-1.830728 2.191452,-2.721471 0.896286,-0.998658 1.841866,-1.949794 2.915958,-2.760222 0.996028,-0.818507 2.027261,-1.610283 2.832062,-2.629558 0.13601,-0.183923 0.280177,-0.36209 0.408035,-0.551768 0.857662,-1.27233 1.401088,-2.738974 1.84633,-4.196388 0.306038,-1.230167 0.597386,-2.467332 0.680094,-3.737892 0.07724,-1.1864 -0.05627,-2.367986 -0.362267,-3.514653 -0.114883,-0.329818 -0.197843,-0.672527 -0.344557,-0.989453 -0.130171,-0.281217 -0.306704,-0.539379 -0.481618,-0.795185 -0.769147,-1.124922 -1.842505,-1.962025 -2.879936,-2.825125 -0.257227,-0.17775 -0.508656,-0.364198 -0.771677,-0.533252 -1.046318,-0.672522 -2.183366,-1.189412 -3.36543,-1.571691 -1.425954,-0.351149 -2.873843,-0.599808 -4.349312,-0.551046 -0.412399,0.02296 -0.85348,0.03872 -1.264285,0.09434 -0.176067,0.02384 -0.368525,0.0099 -0.524496,0.095 -2.477081,1.351558 -4.941788,1.976906 -6.48705,4.109308 -0.822397,1.391409 -1.421138,2.90262 -1.909634,4.440682 -0.349822,1.473908 -0.595923,2.972768 -0.529033,4.493814 -0.02448,1.133152 -0.03134,2.281367 -0.262814,3.395132 0,0 5.882538,-2.905732 5.882538,-2.905732 z" />
    <path
       style="fill:#000000;stroke:#000000;stroke-width:1.64394;paint-order:fill markers stroke"
       id="path6907"
       d="m 65.399482,68.480702 c 0.125576,1.294408 0.09933,2.600132 0.0984,3.899508 0.0052,1.163799 -0.03406,2.326975 -0.06433,3.490175 -0.01677,0.488194 -0.0083,0.253439 -0.02533,0.7043 0,0 5.771468,-2.940718 5.771468,-2.940718 v 0 c -0.01712,-0.433887 -0.0086,-0.207738 -0.02533,-0.678456 -0.03051,-1.141356 -0.06992,-2.28267 -0.06433,-3.424634 -9.04e-4,-1.33298 -0.02371,-2.671298 0.0984,-3.999787 0,0 -5.788944,2.949612 -5.788944,2.949612 z" />
  </g>
</svg>
